<svg xmlns="http://www.w3.org/2000/svg" width="20" height="20" viewBox="0 0 32 32" fill="#ccc"><path d="M14.186 10.442c.059.117.117.234.175.322s.146.175.205.263c.088.088.175.175.293.263.088.059.205.146.351.175.117.059.234.088.38.117s.263.029.38.029c.117 0 .263 0 .38-.029s.234-.059.322-.117h.029c.117-.059.234-.117.351-.205.088-.059.175-.146.263-.234l.029-.029c.088-.088.146-.175.205-.263s.117-.175.146-.293c0-.029 0-.029.029-.059.058-.117.088-.263.117-.38s.029-.263.029-.38 0-.263-.029-.38-.058-.234-.117-.38a1.676 1.676 0 0 0-.351-.527l-.058-.059c-.088-.088-.175-.146-.293-.234-.117-.059-.205-.117-.322-.175s-.234-.088-.351-.117c-.146-.029-.263-.029-.38-.029s-.263 0-.38.029a1.663 1.663 0 0 0-.351.117h-.029c-.117.059-.234.117-.322.175-.117.088-.205.146-.293.234s-.175.175-.234.263c-.059.088-.117.205-.175.322s-.088.234-.117.351c-.029.146-.029.263-.029.38s0 .263.029.38c.029.234.088.351.117.468zm4.066 10.706h-.673v-7.166a.756.756 0 0 0-.761-.761h-3.071a.756.756 0 0 0-.761.761v1.58c0 .409.322.761.761.761h.614v4.856h-.614a.756.756 0 0 0-.761.761v1.58c0 .41.322.761.761.761h4.505c.41 0 .761-.322.761-.761v-1.58c0-.439-.351-.79-.761-.79z"/><path d="M16 0C7.166 0 0 7.166 0 16s7.166 16 16 16 16-7.166 16-16S24.834 0 16 0zm0 29.894c-7.664 0-13.894-6.23-13.894-13.894S8.336 2.106 16 2.106 29.894 8.336 29.894 16 23.664 29.894 16 29.894z"/></svg>